HIERARCHY
ROOT mixamorigHips
{
	OFFSET -0.003559 -0.080472 -95.464935
	CHANNELS 6 Xposition Yposition Zposition Xrotation Yrotation Zrotation
	JOINT mixamorigSpine
	{
		OFFSET 0.000000 10.058830 -0.358160
		CHANNELS 3 Xrotation Yrotation Zrotation
		JOINT mixamorigSpine1
		{
			OFFSET -0.000000 11.742748 0.000000
			CHANNELS 3 Xrotation Yrotation Zrotation
			JOINT mixamorigSpine2
			{
				OFFSET -0.000000 13.420251 -0.000000
				CHANNELS 3 Xrotation Yrotation Zrotation
				JOINT mixamorigNeck
				{
					OFFSET -0.000000 15.097818 0.000001
					CHANNELS 3 Xrotation Yrotation Zrotation
					JOINT mixamorigHead
					{
						OFFSET 0.000000 8.085571 2.687786
						CHANNELS 3 Xrotation Yrotation Zrotation
						End Site
						{
							OFFSET 0.000000 21.499176 7.146702
						}
					}
				}
				JOINT mixamorigLeftShoulder
				{
					OFFSET 5.949117 13.247728 -0.064451
					CHANNELS 3 Xrotation Yrotation Zrotation
					JOINT mixamorigLeftArm
					{
						OFFSET -0.000000 12.472157 0.000006
						CHANNELS 3 Xrotation Yrotation Zrotation
						JOINT mixamorigLeftForeArm
						{
							OFFSET 0.000000 23.814892 0.000003
							CHANNELS 3 Xrotation Yrotation Zrotation
							JOINT mixamorigLeftHand
							{
								OFFSET 0.000000 24.556324 -0.000002
								CHANNELS 3 Xrotation Yrotation Zrotation
								JOINT mixamorigLeftHandThumb1
								{
									OFFSET -2.831983 2.535839 1.178036
									CHANNELS 3 Xrotation Yrotation Zrotation
									JOINT mixamorigLeftHandThumb2
									{
										OFFSET -0.652370 3.116265 -0.000000
										CHANNELS 3 Xrotation Yrotation Zrotation
										JOINT mixamorigLeftHandThumb3
										{
											OFFSET 0.143046 3.056093 0.000019
											CHANNELS 3 Xrotation Yrotation Zrotation
											End Site
											{
												OFFSET 0.509328 2.328846 -0.000004
											}
										}
									}
								}
								JOINT mixamorigLeftHandIndex1
								{
									OFFSET -3.336291 8.315767 0.101954
									CHANNELS 3 Xrotation Yrotation Zrotation
									JOINT mixamorigLeftHandIndex2
									{
										OFFSET 0.012762 3.045644 0.000017
										CHANNELS 3 Xrotation Yrotation Zrotation
										JOINT mixamorigLeftHandIndex3
										{
											OFFSET -0.004547 2.806752 0.000017
											CHANNELS 3 Xrotation Yrotation Zrotation
											End Site
											{
												OFFSET -0.008216 2.440060 -0.000012
											}
										}
									}
								}
								JOINT mixamorigLeftHandMiddle1
								{
									OFFSET -0.902019 8.435616 -0.141518
									CHANNELS 3 Xrotation Yrotation Zrotation
									JOINT mixamorigLeftHandMiddle2
									{
										OFFSET 0.009087 3.193605 -0.000019
										CHANNELS 3 Xrotation Yrotation Zrotation
										JOINT mixamorigLeftHandMiddle3
										{
											OFFSET -0.005788 3.085163 -0.000010
											CHANNELS 3 Xrotation Yrotation Zrotation
											End Site
											{
												OFFSET -0.003300 2.692937 -0.000004
											}
										}
									}
								}
								JOINT mixamorigLeftHandRing1
								{
									OFFSET 1.132394 8.436696 -0.207104
									CHANNELS 3 Xrotation Yrotation Zrotation
									JOINT mixamorigLeftHandRing2
									{
										OFFSET 0.002227 2.740808 0.000023
										CHANNELS 3 Xrotation Yrotation Zrotation
										JOINT mixamorigLeftHandRing3
										{
											OFFSET -0.005208 2.757587 -0.000008
											CHANNELS 3 Xrotation Yrotation Zrotation
											End Site
											{
												OFFSET 0.002980 2.285017 -0.000001
											}
										}
									}
								}
								JOINT mixamorigLeftHandPinky1
								{
									OFFSET 3.105916 8.079437 0.092949
									CHANNELS 3 Xrotation Yrotation Zrotation
									JOINT mixamorigLeftHandPinky2
									{
										OFFSET 0.002583 2.527384 -0.000020
										CHANNELS 3 Xrotation Yrotation Zrotation
										JOINT mixamorigLeftHandPinky3
										{
											OFFSET -0.001322 2.003400 -0.000023
											CHANNELS 3 Xrotation Yrotation Zrotation
											End Site
											{
												OFFSET -0.001263 1.854526 0.000001
											}
										}
									}
								}
							}
						}
					}
				}
				JOINT mixamorigRightShoulder
				{
					OFFSET -5.949117 13.247830 -0.067294
					CHANNELS 3 Xrotation Yrotation Zrotation
					JOINT mixamorigRightArm
					{
						OFFSET -0.000001 12.472156 0.000001
						CHANNELS 3 Xrotation Yrotation Zrotation
						JOINT mixamorigRightForeArm
						{
							OFFSET 0.000000 23.819853 0.000001
							CHANNELS 3 Xrotation Yrotation Zrotation
							JOINT mixamorigRightHand
							{
								OFFSET 0.000000 24.559925 -0.000003
								CHANNELS 3 Xrotation Yrotation Zrotation
								JOINT mixamorigRightHandThumb1
								{
									OFFSET 2.812494 2.442845 1.234953
									CHANNELS 3 Xrotation Yrotation Zrotation
									JOINT mixamorigRightHandThumb2
									{
										OFFSET 0.604442 3.080987 0.000017
										CHANNELS 3 Xrotation Yrotation Zrotation
										JOINT mixamorigRightHandThumb3
										{
											OFFSET -0.326907 3.048919 0.000008
											CHANNELS 3 Xrotation Yrotation Zrotation
											End Site
											{
												OFFSET -0.277533 2.551217 0.000006
											}
										}
									}
								}
								JOINT mixamorigRightHandIndex1
								{
									OFFSET 3.351132 8.367216 0.110744
									CHANNELS 3 Xrotation Yrotation Zrotation
									JOINT mixamorigRightHandIndex2
									{
										OFFSET -0.002762 3.068331 -0.000010
										CHANNELS 3 Xrotation Yrotation Zrotation
										JOINT mixamorigRightHandIndex3
										{
											OFFSET 0.002070 2.779741 -0.000016
											CHANNELS 3 Xrotation Yrotation Zrotation
											End Site
											{
												OFFSET 0.000694 2.490071 0.000007
											}
										}
									}
								}
								JOINT mixamorigRightHandMiddle1
								{
									OFFSET 0.917753 8.605752 -0.172051
									CHANNELS 3 Xrotation Yrotation Zrotation
									JOINT mixamorigRightHandMiddle2
									{
										OFFSET -0.001352 3.230438 -0.000024
										CHANNELS 3 Xrotation Yrotation Zrotation
										JOINT mixamorigRightHandMiddle3
										{
											OFFSET 0.000683 3.025543 -0.000000
											CHANNELS 3 Xrotation Yrotation Zrotation
											End Site
											{
												OFFSET 0.000669 2.688761 0.000029
											}
										}
									}
								}
								JOINT mixamorigRightHandRing1
								{
									OFFSET -1.163309 8.798316 -0.229231
									CHANNELS 3 Xrotation Yrotation Zrotation
									JOINT mixamorigRightHandRing2
									{
										OFFSET 0.001308 2.674105 -0.000012
										CHANNELS 3 Xrotation Yrotation Zrotation
										JOINT mixamorigRightHandRing3
										{
											OFFSET -0.002177 2.630942 -0.000002
											CHANNELS 3 Xrotation Yrotation Zrotation
											End Site
											{
												OFFSET 0.000870 2.160648 0.000000
											}
										}
									}
								}
								JOINT mixamorigRightHandPinky1
								{
									OFFSET -3.105574 7.894262 0.220213
									CHANNELS 3 Xrotation Yrotation Zrotation
									JOINT mixamorigRightHandPinky2
									{
										OFFSET 0.002804 2.509986 0.000005
										CHANNELS 3 Xrotation Yrotation Zrotation
										JOINT mixamorigRightHandPinky3
										{
											OFFSET -0.001254 2.099178 0.000025
											CHANNELS 3 Xrotation Yrotation Zrotation
											End Site
											{
												OFFSET -0.001552 1.845638 -0.000009
											}
										}
									}
								}
							}
						}
					}
				}
			}
		}
	}
	JOINT mixamorigLeftUpLeg
	{
		OFFSET 9.392097 -5.572212 -0.093209
		CHANNELS 3 Xrotation Yrotation Zrotation
		JOINT mixamorigLeftLeg
		{
			OFFSET 0.000000 42.318310 -0.000000
			CHANNELS 3 Xrotation Yrotation Zrotation
			JOINT mixamorigLeftFoot
			{
				OFFSET -0.000001 39.099655 0.000000
				CHANNELS 3 Xrotation Yrotation Zrotation
				JOINT mixamorigLeftToeBase
				{
					OFFSET -0.000001 14.706295 -0.000001
					CHANNELS 3 Xrotation Yrotation Zrotation
					End Site
					{
						OFFSET -0.000001 5.953888 0.000000
					}
				}
			}
		}
	}
	JOINT mixamorigRightUpLeg
	{
		OFFSET -9.392097 -5.572212 -0.015229
		CHANNELS 3 Xrotation Yrotation Zrotation
		JOINT mixamorigRightLeg
		{
			OFFSET -0.000000 42.325943 -0.000000
			CHANNELS 3 Xrotation Yrotation Zrotation
			JOINT mixamorigRightFoot
			{
				OFFSET -0.000002 39.093311 -0.000000
				CHANNELS 3 Xrotation Yrotation Zrotation
				JOINT mixamorigRightToeBase
				{
					OFFSET -0.000000 14.599653 -0.000002
					CHANNELS 3 Xrotation Yrotation Zrotation
					End Site
					{
						OFFSET -0.000001 6.036281 0.000000
					}
				}
			}
		}
	}
}
MOTION
Frames: 4
Frame Time: 0.03333333333333333
-2.981925 85.199875 0.579255 -7.813519 -40.265090 -8.187583 12.708457 4.748486 0.082102 1.032870 0.709108 -0.964075 1.041422 0.686524 -0.973751 10.766868 0.846611 -5.598125 3.788964 5.503709 -19.206647 92.344736 -23.451991 -88.890787 11.027270 26.074799 41.539619 0.993968 -0.065697 43.025408 -2.967980 22.816583 5.898281 21.562055 0.283612 24.431175 -6.195267 -6.896731 -24.771986 -2.544788 -15.028843 -25.624752 88.334468 -1.217411 -7.014343 67.865766 -4.830163 -7.044865 19.832652 -0.414186 -2.609513 85.555316 -0.858694 -6.755016 82.781606 -6.625638 -7.466839 32.883789 -1.121010 -3.984555 93.416925 -2.102897 -7.701601 75.182894 -5.733706 -7.497358 39.720711 -1.687915 -4.714443 81.218316 -0.504442 -10.465371 80.157561 -2.272639 -6.779230 30.077648 -0.999086 -3.794125 103.501282 22.647076 71.434924 7.250105 -35.134740 -56.589263 1.416978 -0.670851 -78.113713 4.434092 -13.836428 21.673654 11.805444 -22.455039 -5.393114 -3.615061 10.566242 0.574544 -2.833069 -0.974085 26.127458 -12.341060 1.249355 -16.914629 18.689579 0.362528 2.198845 8.220502 0.059775 0.912675 50.709935 -2.200889 5.974467 74.924790 4.909542 6.394181 27.403687 0.669706 3.035215 62.746847 -1.468650 10.695163 61.044526 3.476836 5.877726 24.641899 0.690079 2.892264 67.261153 -1.481699 12.929559 72.456612 4.393825 6.018503 27.522553 0.735327 2.922561 -30.857020 9.391036 -154.896554 -54.841410 1.348231 -0.541772 74.870374 -6.919350 4.326941 36.206392 -0.638608 0.341187 -8.972689 -13.268104 163.715862 -46.610015 -5.196795 -2.202148 88.972613 12.514241 -1.430600 34.443375 0.565551 -0.059036 
-3.087003 85.189301 0.636566 -7.869861 -40.352318 -8.298274 12.733598 4.654655 0.044693 1.037391 0.691638 -0.900082 1.045173 0.671185 -0.909364 10.473658 0.290596 -5.840124 2.470750 2.734885 -19.886891 92.370315 -23.679648 -88.877546 11.148648 26.147825 41.456251 0.981881 -0.076867 42.377411 -1.752367 24.094765 4.764435 21.574452 0.199010 24.441654 -6.132169 -6.884581 -24.749885 -2.526669 -15.037313 -25.620437 88.349489 -1.219302 -7.015979 67.795165 -4.821579 -7.041679 19.905203 -0.417259 -2.618340 85.602283 -0.864398 -6.760390 82.720874 -6.617866 -7.466053 32.935384 -1.124521 -3.990192 93.407829 -2.101668 -7.700706 75.152171 -5.729756 -7.496341 39.736966 -1.689297 -4.716140 81.284073 -0.511810 -10.473474 80.145180 -2.271181 -6.778081 30.115327 -1.001557 -3.798428 103.288768 23.159646 71.914777 9.531733 -34.755399 -55.302099 1.420667 -0.688992 -78.846673 6.794093 -13.642161 22.908065 11.608524 -22.121778 -5.200746 -3.499151 10.539197 0.545361 -2.807399 -0.984965 26.111211 -9.715544 0.908745 -16.722204 18.587851 0.358711 2.187801 8.052628 0.057172 0.893587 50.968915 -2.199657 6.122567 74.711388 4.885776 6.387823 27.067178 0.654507 3.000799 62.394143 -1.497190 11.087696 60.885789 3.460411 5.868475 24.283256 0.680842 2.853917 66.434696 -1.531598 13.521295 72.315751 4.378947 6.013594 27.436053 0.730836 2.914062 -30.804673 9.417686 -154.746772 -54.944924 1.388751 -0.508992 75.026113 -6.848439 4.362491 36.235931 -0.590719 0.341126 -8.875292 -13.248016 163.818233 -46.644888 -5.353366 -2.231986 88.989717 12.508906 -1.501140 34.487113 0.676221 -0.067391 
-3.190016 85.165161 0.682572 -7.909389 -40.361902 -8.409767 12.778083 4.466317 0.084724 1.026444 0.663511 -0.859762 1.033691 0.643795 -0.868614 10.313135 0.099928 -5.993590 1.389476 1.990875 -20.442374 92.324250 -23.905666 -88.992654 11.217631 26.369325 41.114923 0.981451 -0.077244 42.355138 -0.819473 24.648759 4.024255 21.591891 0.139495 24.529216 -6.109728 -6.881941 -24.747139 -2.481314 -15.051540 -25.601861 88.326688 -1.216412 -7.013496 67.735039 -4.814278 -7.038952 19.974003 -0.420190 -2.626736 85.612098 -0.865588 -6.761507 82.684416 -6.613185 -7.465536 32.984143 -1.127879 -3.995520 93.419510 -2.103254 -7.701840 75.133313 -5.727314 -7.495709 39.760710 -1.691278 -4.718598 81.286762 -0.512130 -10.473778 80.154158 -2.272222 -6.778925 30.160539 -1.004548 -3.803599 102.982018 23.523179 72.501212 11.996762 -34.204418 -53.985968 1.427345 -0.725310 -80.307254 7.870801 -13.792678 23.739463 11.303748 -21.662766 -4.935637 -3.416371 10.521935 0.525635 -2.872282 -0.967509 26.133465 -8.723153 0.779740 -16.872803 18.668713 0.361754 2.196567 8.025982 0.056767 0.890576 50.743679 -2.209676 6.081072 74.764366 4.891683 6.389401 26.798349 0.643177 2.973321 61.347363 -1.567525 11.315413 60.866402 3.458413 5.867358 24.029224 0.674622 2.826787 65.073505 -1.637911 14.342805 72.332764 4.380727 6.014194 27.485397 0.733398 2.918900 -30.791508 9.392119 -154.630623 -55.078882 1.445756 -0.433766 75.231418 -6.734088 4.417071 36.223830 -0.527672 0.337542 -8.760377 -13.187278 163.998268 -46.726130 -5.377270 -2.294730 89.039116 12.569470 -1.598261 34.531144 0.791648 -0.076176 
-3.305071 85.153328 0.732635 -7.995768 -40.424652 -8.539023 12.794807 4.305894 0.147540 0.993268 0.642623 -0.866086 1.000422 0.622263 -0.874833 10.353346 0.314740 -5.974115 1.058123 3.390840 -20.649250 92.221330 -24.054885 -89.198461 11.374412 26.692435 40.721306 0.983110 -0.075746 42.442757 -0.704482 23.352524 4.218430 21.607665 0.180501 24.540878 -6.099289 -6.880981 -24.746728 -2.425884 -15.067128 -25.575389 88.326287 -1.216375 -7.013448 67.673995 -4.806862 -7.036197 20.046290 -0.423265 -2.635505 85.617719 -0.866274 -6.762157 82.643817 -6.607974 -7.464981 33.041325 -1.131806 -4.001760 93.430754 -2.104795 -7.702944 75.132000 -5.727138 -7.495676 39.778125 -1.692735 -4.720401 81.283814 -0.511798 -10.473385 80.159169 -2.272812 -6.779378 30.193693 -1.006715 -3.807386 102.767178 23.742290 72.899178 13.297996 -34.051922 -53.299111 1.432185 -0.755508 -81.518006 4.650011 -14.728081 22.171030 11.102939 -21.233467 -4.871522 -3.447326 10.534562 0.535968 -2.982782 -0.933372 26.180145 -8.859105 0.784718 -17.279493 18.672885 0.361921 2.197032 7.979083 0.056038 0.885241 49.970004 -2.231600 5.846164 74.955825 4.913011 6.395111 26.568785 0.633632 2.949791 59.959329 -1.649842 11.272981 60.959248 3.468007 5.872731 23.876482 0.668598 2.810368 63.787978 -1.727710 15.154928 72.391633 4.386956 6.016254 27.573753 0.737988 2.927595 -30.721745 9.403039 -154.503928 -55.182075 1.354995 -0.373254 75.295026 -6.806585 4.392535 36.263723 -0.550031 0.341285 -8.622382 -13.148229 164.153345 -46.778851 -5.431830 -2.357118 89.092767 12.574649 -1.700152 34.589781 0.846346 -0.082880 
